<?xml version="1.0" encoding="UTF-8"?>
<svg width="3707px" height="1435px" viewBox="0 0 3707 1435" version="1.1" xmlns="http://www.w3.org/2000/svg" xmlns:xlink="http://www.w3.org/1999/xlink">
    <!-- Generator: Sketch 52.5 (67469) - http://www.bohemiancoding.com/sketch -->
    <title>webiks1</title>
    <desc>Created with Sketch.</desc>
    <g id="webiks1" stroke="none" stroke-width="1" fill="none" fill-rule="evenodd">
        <g id="Group-3" fill-rule="nonzero">
            <polygon id="Shape" fill="#81476A" points="1948.21711 1048 1859.3155 1048 1771.84437 829.950467 1683.6845 1048 1594.78289 1048 1460 713 1563.78918 713 1639.07475 926.06615 1724.37367 713 1818.25546 713 1903.55438 926.06615 1978.83995 713 2083 713"></polygon>
            <path d="M2420.82392,913.757458 L2196.07887,913.757458 C2204.67597,957.412832 2242.72607,976.039125 2293.72489,976.039125 C2327.96555,975.404722 2361.88951,969.368152 2394.23661,958.15365 L2394.23661,1039.11453 C2361.93172,1050.48931 2327.98155,1056.53054 2293.72489,1057 C2170.23452,1057 2097,990.432169 2097,880.843951 C2097,775.012742 2160.68219,704 2262.14914,704 C2365.52656,704 2422.99973,774.906911 2422.99973,880.843951 C2423.016,891.851374 2422.28909,902.847404 2420.82392,913.757458 Z M2262.14914,779.140159 C2229.14054,779.140159 2203.24312,801.311797 2197.51172,837.823565 L2328.21941,837.823565 C2321.74505,797.766452 2295.9007,779.140159 2262.14914,779.140159 Z" id="Shape" fill="#81476A"></path>
            <path d="M2646.32757,1059 C2594.89498,1057.73071 2543.78058,1050.50997 2494,1037.48128 L2494,524 L2589.13866,524 L2589.13866,714.80642 C2607.71802,709.14676 2626.96995,706.009399 2646.38042,705.478106 C2754.36281,705.478106 2818,777.878542 2818,882.610065 C2818,987.341589 2754.30995,1059 2646.32757,1059 Z M2646.32757,786.464831 C2627.02439,786.451889 2607.79511,788.855557 2589.08581,793.620071 L2589.08581,971.494056 C2607.88605,975.665005 2627.07313,977.832441 2646.32757,977.960273 C2692.09984,977.960273 2717.84013,944.993164 2717.84013,882.557064 C2717.84013,820.120963 2692.09984,786.72984 2646.32757,786.72984 L2646.32757,786.464831 Z" id="Shape" fill="#81476A"></path>
            <polygon id="Shape" fill="#81476A" points="2985 1048 2890 1048 2890 713 2985 713"></polygon>
            <polygon id="Shape" fill="#81476A" points="3298.567 1050 3212.19393 945.998588 3177.14781 986.199032 3177.14781 1049.8409 3082 1049.8409 3082 524 3177.14781 524 3177.14781 859.127445 3298.72558 714.872555 3411 714.872555 3266.5339 882.781004 3411 1050"></polygon>
            <path d="M3556.68837,1057 C3517.1335,1056.58773 3477.83707,1050.56592 3439.97335,1039.11453 L3439.97335,958.206566 C3477.94714,969.164878 3517.17609,975.176345 3556.68837,976.09204 C3598.22114,976.09204 3610.38998,963.180633 3610.38998,949.634238 C3610.38998,936.087843 3599.80838,925.980962 3571.02643,925.980962 C3485.10386,925.980962 3435,891.638735 3435,818.562285 C3435,761.254684 3486.53238,704 3585.31159,704 C3625.09581,704.364355 3664.62598,710.386491 3702.71441,721.885474 L3702.71441,803.534253 C3664.62301,791.954309 3625.11618,785.686437 3585.31159,784.90796 C3543.77882,784.90796 3531.60998,797.819367 3531.60998,811.365762 C3531.60998,824.912157 3543.09102,834.966122 3570.97353,834.966122 C3657.5839,834.966122 3706.99996,869.361265 3706.99996,942.3848 C3707.05287,999.6924 3656.20829,1057 3556.68837,1057 Z" id="Shape" fill="#81476A"></path>
            <polygon id="Rectangle-path" fill="#81476A" points="2890 564 2985 564 2985 659 2890 659"></polygon>
            <polygon id="Shape" fill="#70C3AF" points="1280 52.092038 893.233258 0 652 312.922425 1038.60804 362"></polygon>
            <polygon id="Shape" fill="#81476A" points="1198.1611 760 960 1068.51852 1110.62682 1430 1349 1121.42857"></polygon>
            <polygon id="Shape" fill="#F4A256" points="629 323.06896 241.913183 270 2 581.780143 388.927653 634"></polygon>
            <polygon id="Shape" fill="#81476A" points="945.299863 1073.29555 556 1023 704.846833 1382.21614 1096 1435"></polygon>
            <polygon id="Shape" fill="#F4A256" points="0 594 149.772987 955.878842 537 1008 386.591259 646.121158"></polygon>
            <polygon id="Shape" fill="#81476A" points="1186 751.548387 798.470032 699 558 1010.68094 947.86257 1061"></polygon>
            <polygon id="Shape" fill="#70C3AF" points="1201.05851 732 1442 420.69322 1291.47115 59 1050 368.720638"></polygon>
            <polygon id="Shape" fill="#F4A256" points="789 691.900662 637.783652 331 398 641.410596 548.421309 1003"></polygon>
            <polygon id="Shape" fill="#70C3AF" points="1188 738 1036.95552 375.057678 650 326 801.044479 685.721097"></polygon>
        </g>
        <g id="Group-3" fill-rule="nonzero">
            <polygon id="Shape" fill="#81476A" points="1948.21711 1048 1859.3155 1048 1771.84437 829.950467 1683.6845 1048 1594.78289 1048 1460 713 1563.78918 713 1639.07475 926.06615 1724.37367 713 1818.25546 713 1903.55438 926.06615 1978.83995 713 2083 713"></polygon>
            <path d="M2420.82392,913.757458 L2196.07887,913.757458 C2204.67597,957.412832 2242.72607,976.039125 2293.72489,976.039125 C2327.96555,975.404722 2361.88951,969.368152 2394.23661,958.15365 L2394.23661,1039.11453 C2361.93172,1050.48931 2327.98155,1056.53054 2293.72489,1057 C2170.23452,1057 2097,990.432169 2097,880.843951 C2097,775.012742 2160.68219,704 2262.14914,704 C2365.52656,704 2422.99973,774.906911 2422.99973,880.843951 C2423.016,891.851374 2422.28909,902.847404 2420.82392,913.757458 Z M2262.14914,779.140159 C2229.14054,779.140159 2203.24312,801.311797 2197.51172,837.823565 L2328.21941,837.823565 C2321.74505,797.766452 2295.9007,779.140159 2262.14914,779.140159 Z" id="Shape" fill="#81476A"></path>
            <path d="M2646.32757,1059 C2594.89498,1057.73071 2543.78058,1050.50997 2494,1037.48128 L2494,524 L2589.13866,524 L2589.13866,714.80642 C2607.71802,709.14676 2626.96995,706.009399 2646.38042,705.478106 C2754.36281,705.478106 2818,777.878542 2818,882.610065 C2818,987.341589 2754.30995,1059 2646.32757,1059 Z M2646.32757,786.464831 C2627.02439,786.451889 2607.79511,788.855557 2589.08581,793.620071 L2589.08581,971.494056 C2607.88605,975.665005 2627.07313,977.832441 2646.32757,977.960273 C2692.09984,977.960273 2717.84013,944.993164 2717.84013,882.557064 C2717.84013,820.120963 2692.09984,786.72984 2646.32757,786.72984 L2646.32757,786.464831 Z" id="Shape" fill="#81476A"></path>
            <polygon id="Shape" fill="#81476A" points="2985 1048 2890 1048 2890 713 2985 713"></polygon>
            <polygon id="Shape" fill="#81476A" points="3298.567 1050 3212.19393 945.998588 3177.14781 986.199032 3177.14781 1049.8409 3082 1049.8409 3082 524 3177.14781 524 3177.14781 859.127445 3298.72558 714.872555 3411 714.872555 3266.5339 882.781004 3411 1050"></polygon>
            <path d="M3556.68837,1057 C3517.1335,1056.58773 3477.83707,1050.56592 3439.97335,1039.11453 L3439.97335,958.206566 C3477.94714,969.164878 3517.17609,975.176345 3556.68837,976.09204 C3598.22114,976.09204 3610.38998,963.180633 3610.38998,949.634238 C3610.38998,936.087843 3599.80838,925.980962 3571.02643,925.980962 C3485.10386,925.980962 3435,891.638735 3435,818.562285 C3435,761.254684 3486.53238,704 3585.31159,704 C3625.09581,704.364355 3664.62598,710.386491 3702.71441,721.885474 L3702.71441,803.534253 C3664.62301,791.954309 3625.11618,785.686437 3585.31159,784.90796 C3543.77882,784.90796 3531.60998,797.819367 3531.60998,811.365762 C3531.60998,824.912157 3543.09102,834.966122 3570.97353,834.966122 C3657.5839,834.966122 3706.99996,869.361265 3706.99996,942.3848 C3707.05287,999.6924 3656.20829,1057 3556.68837,1057 Z" id="Shape" fill="#81476A"></path>
            <polygon id="Rectangle-path" fill="#81476A" points="2890 564 2985 564 2985 659 2890 659"></polygon>
            <polygon id="Shape" fill="#70C3AF" points="1280 52.092038 893.233258 0 652 312.922425 1038.60804 362"></polygon>
            <polygon id="Shape" fill="#81476A" points="1198.1611 760 960 1068.51852 1110.62682 1430 1349 1121.42857"></polygon>
            <polygon id="Shape" fill="#F4A256" points="629 323.06896 241.913183 270 2 581.780143 388.927653 634"></polygon>
            <polygon id="Shape" fill="#81476A" points="945.299863 1073.29555 556 1023 704.846833 1382.21614 1096 1435"></polygon>
            <polygon id="Shape" fill="#F4A256" points="0 594 149.772987 955.878842 537 1008 386.591259 646.121158"></polygon>
            <polygon id="Shape" fill="#81476A" points="1186 751.548387 798.470032 699 558 1010.68094 947.86257 1061"></polygon>
            <polygon id="Shape" fill="#70C3AF" points="1201.05851 732 1442 420.69322 1291.47115 59 1050 368.720638"></polygon>
            <polygon id="Shape" fill="#F4A256" points="789 691.900662 637.783652 331 398 641.410596 548.421309 1003"></polygon>
            <polygon id="Shape" fill="#70C3AF" points="1188 738 1036.95552 375.057678 650 326 801.044479 685.721097"></polygon>
        </g>
    </g>
</svg>